<?xml version="1.0" encoding="utf-8"?>
<!-- Generator: Adobe Illustrator 18.0.0, SVG Export Plug-In . SVG Version: 6.00 Build 0)  -->
<!DOCTYPE svg PUBLIC "-//W3C//DTD SVG 1.1//EN" "http://www.w3.org/Graphics/SVG/1.1/DTD/svg11.dtd" [
	<!ENTITY ns_extend "http://ns.adobe.com/Extensibility/1.0/">
	<!ENTITY ns_ai "http://ns.adobe.com/AdobeIllustrator/10.0/">
	<!ENTITY ns_graphs "http://ns.adobe.com/Graphs/1.0/">
	<!ENTITY ns_vars "http://ns.adobe.com/Variables/1.0/">
	<!ENTITY ns_imrep "http://ns.adobe.com/ImageReplacement/1.0/">
	<!ENTITY ns_sfw "http://ns.adobe.com/SaveForWeb/1.0/">
	<!ENTITY ns_custom "http://ns.adobe.com/GenericCustomNamespace/1.0/">
	<!ENTITY ns_adobe_xpath "http://ns.adobe.com/XPath/1.0/">
]>
<svg version="1.1" id="Layer_1" xmlns:x="&ns_extend;" xmlns:i="&ns_ai;" xmlns:graph="&ns_graphs;"
	 xmlns="http://www.w3.org/2000/svg" xmlns:xlink="http://www.w3.org/1999/xlink" x="0px" y="0px" viewBox="0 0 194 34"
	 enable-background="new 0 0 194 34" xml:space="preserve">
<metadata>
	<sfw  xmlns="&ns_sfw;">
		<slices></slices>
		<sliceSourceBounds  height="31.3" width="191.3" x="0.7" y="-32.3" bottomLeftOrigin="true"></sliceSourceBounds>
	</sfw>
</metadata>
<g>
	<g>
		<path fill="#006697" d="M23,22.1V8.7C23,8.4,23,8.2,22.9,8c-0.1-0.1-0.3-0.2-0.6-0.3V7.3h3.4v0.4C25.3,7.8,25.1,7.9,25,8
			c-0.1,0.1-0.2,0.4-0.2,0.7v13.4c0,0.3,0,0.6,0.1,0.7c0.1,0.1,0.3,0.2,0.6,0.3v0.4h-3.4v-0.4c0.3-0.1,0.5-0.2,0.6-0.3
			C23,22.7,23,22.5,23,22.1z"/>
		<path fill="#006697" d="M31,12.3v9.9c0,0.3,0,0.6,0.1,0.7c0.1,0.1,0.3,0.2,0.6,0.3v0.3h-2.9v-0.3c0.3-0.1,0.5-0.2,0.6-0.3
			c0.1-0.1,0.1-0.4,0.1-0.7V11.6c0-0.3-0.1-0.6-0.2-0.7c-0.1-0.1-0.3-0.2-0.6-0.3v-0.3h4.3v0.3c-0.4,0.1-0.6,0.3-0.6,0.6
			c0,0.2,0.2,0.5,0.5,0.9l7.9,8.8v-9.2c0-0.3-0.1-0.6-0.2-0.7c-0.1-0.1-0.3-0.2-0.6-0.3v-0.3H43v0.3c-0.3,0.1-0.5,0.2-0.6,0.3
			c-0.1,0.1-0.2,0.4-0.2,0.7v10.6c0,0.3,0,0.6,0.1,0.7c0.1,0.1,0.3,0.2,0.6,0.3v0.3h-3.5v-0.3c0.4-0.1,0.6-0.3,0.6-0.5
			c0-0.2-0.2-0.5-0.6-0.9L31,12.3z"/>
		<path fill="#006697" d="M58.5,10.9l-1.3,2.6l-0.3-0.1c0-0.2,0.1-0.4,0.1-0.5c0-0.2-0.3-0.4-0.8-0.7c-1.1-0.6-2.4-0.9-4-0.9
			c-1.3,0-2.3,0.2-3.2,0.7c-0.9,0.5-1.3,1.1-1.3,2c0,0.4,0.1,0.7,0.3,1c0.2,0.3,0.5,0.5,0.9,0.6c0.4,0.1,0.8,0.2,1.2,0.2
			c0.4,0,1.4,0.1,2.8,0.1c1.2,0,2.1,0.1,2.7,0.2c0.6,0.1,1.1,0.3,1.6,0.5c0.5,0.3,0.8,0.6,1.1,1.1c0.3,0.5,0.4,1,0.4,1.6
			c0,1.2-0.5,2.2-1.5,2.9c-1.2,0.9-2.8,1.3-4.8,1.3c-1,0-2-0.2-3.1-0.5c-1.1-0.3-2.1-0.7-3-1.2C46.2,22.1,46.1,22,46,22
			c-0.1,0-0.3,0.1-0.5,0.4l-0.3-0.2l1.5-2.5l0.3,0.2c0,0.1,0,0.2,0,0.2c0,0.1-0.1,0.2-0.1,0.3c0,0.2,0.4,0.5,1.2,1
			c1.4,0.7,2.8,1.1,4.2,1.1c1.3,0,2.5-0.2,3.3-0.7c0.4-0.2,0.8-0.5,1-0.9c0.3-0.4,0.4-0.8,0.4-1.2c0-0.4-0.1-0.7-0.3-1
			c-0.2-0.3-0.5-0.5-0.8-0.6c-0.3-0.1-0.7-0.2-1.1-0.2c-0.4,0-1.2-0.1-2.3-0.1c-1.3-0.1-2.2-0.1-2.8-0.2c-0.6-0.1-1.1-0.2-1.6-0.4
			c-0.6-0.2-1.1-0.6-1.5-1.1c-0.4-0.5-0.6-1.2-0.6-1.9c0-1.3,0.6-2.3,1.7-3c1.2-0.7,2.7-1.1,4.5-1.1c1.7,0,3.3,0.4,5,1.1
			c0.3,0.1,0.4,0.2,0.4,0.2c0.1,0,0.3-0.1,0.5-0.4L58.5,10.9z"/>
		<path fill="#006697" d="M63.1,11.6v6.8c0,1.1,0.1,1.8,0.2,2.2c0.1,0.4,0.3,0.7,0.7,1c0.7,0.6,1.9,0.9,3.7,0.9c1.9,0,3.2-0.3,3.9-1
			c0.2-0.3,0.4-0.6,0.5-1c0.1-0.4,0.1-1.1,0.1-2v-6.8c0-0.3-0.1-0.6-0.2-0.7c-0.1-0.1-0.3-0.2-0.6-0.3v-0.3h2.9v0.3
			c-0.3,0.1-0.5,0.2-0.6,0.3c-0.1,0.1-0.2,0.4-0.2,0.7v7.2c0,1.2-0.1,2.1-0.3,2.6c-0.3,0.9-1,1.5-1.9,1.9c-0.9,0.4-2.2,0.6-3.8,0.6
			c-2.3,0-4-0.4-4.9-1.3c-0.5-0.4-0.8-0.9-0.9-1.4c-0.2-0.5-0.2-1.3-0.2-2.4v-7.2c0-0.3-0.1-0.6-0.2-0.7c-0.1-0.1-0.3-0.2-0.6-0.3
			v-0.3h3.2v0.3c-0.3,0.1-0.5,0.2-0.6,0.3C63.2,11,63.1,11.3,63.1,11.6z"/>
		<path fill="#006697" d="M79.3,17.5v4.7c0,0.3,0.1,0.6,0.2,0.7c0.1,0.1,0.3,0.2,0.6,0.3v0.3h-3.2v-0.3c0.3-0.1,0.5-0.2,0.6-0.3
			c0.1-0.1,0.1-0.4,0.1-0.7V11.6c0-0.3-0.1-0.6-0.2-0.7c-0.1-0.1-0.3-0.2-0.6-0.3v-0.3h7.9c0.9,0,1.6,0.1,2.2,0.2
			c0.6,0.1,1.1,0.3,1.5,0.6c0.9,0.6,1.4,1.6,1.4,2.9c0,1-0.3,1.8-1,2.4c-0.6,0.6-1.6,0.9-2.8,1.1l3.3,5.3c0.1,0.2,0.2,0.3,0.4,0.4
			c0.1,0.1,0.3,0.1,0.6,0.2v0.3H87v-0.3c0.3-0.1,0.5-0.2,0.5-0.3c0-0.1-0.1-0.3-0.3-0.6l-3.1-4.8H79.3z M79.3,16.2h5.1
			c0.8,0,1.4,0,1.8-0.1c0.4-0.1,0.8-0.2,1-0.3c0.6-0.3,0.9-1,0.9-1.8c0-0.8-0.3-1.5-0.9-1.9c-0.5-0.4-1.5-0.6-2.7-0.6h-5.2V16.2z"/>
		<path fill="#006697" d="M94.9,17.3v4.9h8.2c0.3,0,0.6-0.1,0.7-0.2c0.1-0.1,0.2-0.3,0.3-0.6h0.3v2.8h-0.3c-0.1-0.3-0.2-0.5-0.3-0.6
			c-0.1-0.1-0.4-0.2-0.7-0.2H92.4v-0.3c0.3-0.1,0.5-0.2,0.6-0.3c0.1-0.1,0.1-0.4,0.1-0.7V11.6c0-0.3-0.1-0.6-0.2-0.7
			c-0.1-0.1-0.3-0.2-0.6-0.3v-0.3h10.6c0.3,0,0.6-0.1,0.7-0.2c0.1-0.1,0.2-0.3,0.3-0.6h0.3v2.8h-0.3c-0.1-0.3-0.2-0.5-0.3-0.6
			c-0.1-0.1-0.4-0.2-0.7-0.2h-8.1V16h5.2c0.3,0,0.6-0.1,0.7-0.2c0.1-0.1,0.2-0.3,0.3-0.6h0.3v2.8h-0.3c-0.1-0.3-0.2-0.5-0.3-0.6
			c-0.1-0.1-0.4-0.2-0.7-0.2H94.9z"/>
		<path fill="#231F20" d="M108.1,22.3V8.6c0-0.2-0.1-0.4-0.2-0.5c-0.1-0.1-0.3-0.2-0.6-0.3V7.3h8.6c1.9,0,3.4,0.3,4.5,0.8
			c1.3,0.7,2.3,1.7,3,3.1c0.6,1.2,0.9,2.6,0.9,4.2c0,1.8-0.4,3.4-1.2,4.8c-0.7,1.2-1.6,2-2.7,2.6c-1.1,0.5-2.6,0.8-4.4,0.8h-8.6
			v-0.4c0.3-0.1,0.5-0.2,0.6-0.3C108,22.7,108.1,22.5,108.1,22.3z M109.9,22h5.9c1.7,0,3-0.3,3.8-0.8c1-0.6,1.7-1.6,2.2-2.9
			c0.3-0.9,0.5-1.8,0.5-2.9c0-1.9-0.5-3.4-1.4-4.7c-0.5-0.7-1.2-1.2-1.9-1.4c-0.8-0.3-1.8-0.4-3.1-0.4h-5.9V22z"/>
		<path fill="#231F20" d="M127.7,22.2V11.6c0-0.3-0.1-0.6-0.2-0.7c-0.1-0.1-0.3-0.2-0.6-0.3v-0.3h3.2v0.3c-0.3,0.1-0.5,0.2-0.6,0.3
			c-0.1,0.1-0.2,0.4-0.2,0.7v10.6c0,0.3,0.1,0.6,0.2,0.7c0.1,0.1,0.3,0.2,0.6,0.3v0.3H127v-0.3c0.3-0.1,0.5-0.2,0.6-0.3
			C127.7,22.8,127.7,22.5,127.7,22.2z"/>
		<path fill="#231F20" d="M135.5,17.5v4.7c0,0.3,0.1,0.6,0.2,0.7c0.1,0.1,0.3,0.2,0.6,0.3v0.3h-3.2v-0.3c0.3-0.1,0.5-0.2,0.6-0.3
			c0.1-0.1,0.1-0.4,0.1-0.7V11.6c0-0.3-0.1-0.6-0.2-0.7c-0.1-0.1-0.3-0.2-0.6-0.3v-0.3h7.9c0.9,0,1.6,0.1,2.2,0.2
			c0.6,0.1,1.1,0.3,1.5,0.6c0.9,0.6,1.4,1.6,1.4,2.9c0,1-0.3,1.8-1,2.4c-0.6,0.6-1.6,0.9-2.8,1.1l3.3,5.3c0.1,0.2,0.2,0.3,0.4,0.4
			c0.1,0.1,0.3,0.1,0.6,0.2v0.3h-3.3v-0.3c0.3-0.1,0.5-0.2,0.5-0.3c0-0.1-0.1-0.3-0.3-0.6l-3.1-4.8H135.5z M135.5,16.2h5.1
			c0.8,0,1.4,0,1.8-0.1c0.4-0.1,0.8-0.2,1-0.3c0.6-0.3,0.9-1,0.9-1.8c0-0.8-0.3-1.5-0.9-1.9c-0.5-0.4-1.5-0.6-2.7-0.6h-5.2V16.2z"/>
		<path fill="#231F20" d="M151.1,17.3v4.9h8.2c0.3,0,0.6-0.1,0.7-0.2c0.1-0.1,0.2-0.3,0.3-0.6h0.3v2.8h-0.3
			c-0.1-0.3-0.2-0.5-0.3-0.6c-0.1-0.1-0.4-0.2-0.7-0.2h-10.7v-0.3c0.3-0.1,0.5-0.2,0.6-0.3c0.1-0.1,0.1-0.4,0.1-0.7V11.6
			c0-0.3-0.1-0.6-0.2-0.7c-0.1-0.1-0.3-0.2-0.6-0.3v-0.3h10.6c0.3,0,0.6-0.1,0.7-0.2c0.1-0.1,0.2-0.3,0.3-0.6h0.3v2.8h-0.3
			c-0.1-0.3-0.2-0.5-0.3-0.6c-0.1-0.1-0.4-0.2-0.7-0.2h-8.1V16h5.2c0.3,0,0.6-0.1,0.7-0.2c0.1-0.1,0.2-0.3,0.3-0.6h0.3v2.8h-0.3
			c-0.1-0.3-0.2-0.5-0.3-0.6c-0.1-0.1-0.4-0.2-0.7-0.2H151.1z"/>
		<path fill="#231F20" d="M177.3,11.2l-1.5,2.6l-0.3-0.2c0.1-0.2,0.1-0.4,0.1-0.5c0-0.2-0.2-0.4-0.5-0.6c-1.3-0.8-2.8-1.2-4.5-1.2
			c-1.7,0-3.1,0.5-4.2,1.4c-1.3,1-1.9,2.4-1.9,4.1c0,1.8,0.7,3.3,2.1,4.4c1.1,0.9,2.4,1.3,3.9,1.3c1.7,0,3.2-0.5,4.5-1.5
			c0.5-0.4,0.7-0.7,0.7-0.9c0-0.1-0.1-0.3-0.2-0.6l0.3-0.2l1.9,2.4l-0.2,0.2c-0.3-0.2-0.5-0.4-0.6-0.4c-0.1,0-0.2,0.1-0.3,0.2
			c-1,0.8-1.9,1.3-2.9,1.7c-1,0.3-2.1,0.5-3.3,0.5c-2.1,0-3.9-0.6-5.2-1.7c-0.7-0.6-1.2-1.2-1.7-2c-0.5-1-0.8-2.1-0.8-3.2
			c0-2.2,0.9-3.9,2.6-5.3c1.4-1.1,3.2-1.7,5.3-1.7c1.9,0,3.7,0.5,5.5,1.4c0.2,0.1,0.3,0.1,0.3,0.1c0.2,0,0.4-0.1,0.6-0.4L177.3,11.2
			z"/>
		<path fill="#231F20" d="M186.4,11.6v10.6c0,0.3,0,0.6,0.1,0.7c0.1,0.1,0.3,0.2,0.6,0.3v0.3h-3.2v-0.3c0.3-0.1,0.5-0.2,0.6-0.3
			c0.1-0.1,0.2-0.4,0.2-0.7V11.6h-4.3c-0.3,0-0.6,0.1-0.7,0.2c-0.1,0.1-0.2,0.3-0.3,0.6H179V9.5h0.3c0.1,0.3,0.2,0.5,0.3,0.6
			c0.1,0.1,0.4,0.2,0.7,0.2h10.4c0.3,0,0.6-0.1,0.7-0.2c0.1-0.1,0.2-0.3,0.3-0.6h0.3v2.8h-0.3c-0.1-0.3-0.2-0.5-0.3-0.6
			c-0.1-0.1-0.4-0.2-0.7-0.2H186.4z"/>
	</g>
	<g>
		<g>
			<path fill="#231F20" d="M15.4,26.8c-4,0.9-8.3,1.1-11.6-1.6c-1.1-0.9-1.9-2.3-2.3-3.7c-0.5-1.4,0-3.2-0.4,1.1
				c0.1-0.8,0.3-1.7,0.5-2.5c0.5-1.5-0.5-3.5,0-5c-1.1,3.5-1.2,8.4,0,11.8c2,5.8,8.9,5.9,13.8,4.8C15.8,31.7,15.1,26.8,15.4,26.8
				L15.4,26.8z"/>
		</g>
	</g>
	<g>
		<g>
			<path fill="#AAACAF" d="M15.9,30.1c0.7-4.5,1.2-10.6-1-14.8c-2.2-4.2-7.4-4.8-11.4-3.3c-0.6,0.2,0.5,4.8,0,5
				c2.8-1,5.8-1.1,8.5,0.3c1.4,0.8,2.5,2.1,3.2,3.5c0.4,0.8,0.7,1.8,0.9,2.7c0.1,0.6,0.2,1.2,0.2,1.9c-0.3-3.8-0.2-1.3-0.3-0.2
				C15.7,26.7,16.2,28.4,15.9,30.1L15.9,30.1z"/>
		</g>
	</g>
	<g>
		<path fill="#006697" d="M6.8,3.7c0-0.6,0.2-1.3,0.5-1.8C7.7,1.3,8.3,1,9.1,1c0.5,0,0.9,0.2,1.3,0.6c0.3,0.4,0.5,1,0.5,1.9
			c0,0.8-0.2,1.5-0.7,1.9C9.8,5.8,9.3,6.1,8.7,6.1c-0.5,0-0.9-0.2-1.3-0.6C7,5.1,6.8,4.5,6.8,3.7z M7.4,3.6c0,0.1,0,0.1,0,0.2
			c0,0.1,0,0.2,0.1,0.3c0,0.2,0.1,0.4,0.2,0.6C7.8,4.9,8,5.1,8.2,5.2c0.2,0.2,0.4,0.2,0.7,0.2c0.1,0,0.3,0,0.4-0.1
			c0.2,0,0.3-0.1,0.4-0.3c0.2-0.1,0.3-0.3,0.4-0.6c0.1-0.2,0.1-0.5,0.1-0.9c0-0.8-0.1-1.3-0.4-1.6c-0.3-0.3-0.6-0.5-1-0.5
			c-0.5,0-0.8,0.2-1.1,0.6C7.5,2.5,7.4,3,7.4,3.6z"/>
	</g>
	<g>
		<path fill="#006697" d="M7.7,15.2c0-1.8,0-3.1-0.1-3.9c0-0.5-0.1-0.9-0.2-1.1C7,9.8,6.9,9.4,6.9,9.1C6.9,9,7,8.8,7.2,8.6
			C7.3,8.4,7.5,8.2,7.7,8c0.5-0.4,0.9-0.7,1.2-0.7c0.2,0,0.5,0.1,0.7,0.2C9.8,7.7,9.9,7.9,10,8c0,0.2,0,0.5-0.1,0.7
			C9.8,8.9,9.7,9.2,9.7,9.5C9.5,11,9.5,15.1,9.5,21.7c0,1.1-0.1,1.9-0.2,2.3c-0.2,0.4-0.4,0.6-0.7,0.6c-0.2,0-0.3-0.1-0.5-0.2
			c-0.1-0.2-0.2-0.5-0.3-1.1C7.7,22.2,7.6,19.5,7.7,15.2z"/>
	</g>
</g>
</svg>
