<?xml version="1.0" encoding="utf-8"?>
<!-- Generator: Adobe Illustrator 18.0.0, SVG Export Plug-In . SVG Version: 6.00 Build 0)  -->
<!DOCTYPE svg PUBLIC "-//W3C//DTD SVG 1.1//EN" "http://www.w3.org/Graphics/SVG/1.1/DTD/svg11.dtd" [
	<!ENTITY ns_extend "http://ns.adobe.com/Extensibility/1.0/">
	<!ENTITY ns_ai "http://ns.adobe.com/AdobeIllustrator/10.0/">
	<!ENTITY ns_graphs "http://ns.adobe.com/Graphs/1.0/">
	<!ENTITY ns_vars "http://ns.adobe.com/Variables/1.0/">
	<!ENTITY ns_imrep "http://ns.adobe.com/ImageReplacement/1.0/">
	<!ENTITY ns_sfw "http://ns.adobe.com/SaveForWeb/1.0/">
	<!ENTITY ns_custom "http://ns.adobe.com/GenericCustomNamespace/1.0/">
	<!ENTITY ns_adobe_xpath "http://ns.adobe.com/XPath/1.0/">
]>
<svg version="1.1" id="Layer_1" xmlns:x="&ns_extend;" xmlns:i="&ns_ai;" xmlns:graph="&ns_graphs;"
	 xmlns="http://www.w3.org/2000/svg" xmlns:xlink="http://www.w3.org/1999/xlink" x="0px" y="0px" viewBox="0 0 40 32"
	 enable-background="new 0 0 40 32" xml:space="preserve">
<metadata>
	<sfw  xmlns="&ns_sfw;">
		<slices></slices>
		<sliceSourceBounds  height="31.5" width="40" x="0" y="-31.5" bottomLeftOrigin="true"></sliceSourceBounds>
	</sfw>
</metadata>
<g>
	<g>
		<path fill="#FFFFFF" d="M0,20.2C0,9.2,8.6,2.6,18.4,0c0,1.3,0,2.6,0,3.9c0,0.3,0.2,1.1,0,1.4c-1.6,0.6-3.2,1.2-4.8,2
			C11.3,8.6,8.8,11,9.4,14c0.5,2.4,4.6,3.4,6.1,5.4c3.8,5.2,0.3,12.1-6,12.1C3,31.5,0,26,0,20.2z M21.5,20.2
			c0-11,8.6-17.5,18.4-20.2c0,1.3,0,2.6,0,3.9c0,0.3,0.2,1.1,0,1.4c-1.6,0.6-3.2,1.2-4.7,2c-2.4,1.3-4.9,3.6-4.2,6.7
			c0.5,2.4,4.6,3.4,6.1,5.4c3.8,5.2,0.3,12.1-6,12.1C24.6,31.5,21.5,26,21.5,20.2z"/>
	</g>
</g>
</svg>
